<svg width="512" height="512" viewBox="0 0 512 512" fill="none" xmlns="http://www.w3.org/2000/svg">
<path d="M471.104 340.936C459.525 349.001 446.219 354.243 432.251 356.243C418.283 358.244 404.041 356.947 390.664 352.456C389.452 352.024 388.154 351.891 386.879 352.068C385.605 352.245 384.392 352.726 383.344 353.472L347.344 379L356.608 392.048L389.272 368.848C404.538 373.307 420.607 374.305 436.308 371.768C452.009 369.231 466.946 363.224 480.032 354.184C484.747 350.998 489.215 347.463 493.4 343.608L482.552 331.848C478.971 335.162 475.144 338.2 471.104 340.936Z" fill="url(#paint0_linear_361_461)"/>
<path d="M390.545 221.543C379.095 228.858 369.922 239.235 364.067 251.497C358.212 263.758 355.908 277.415 357.417 290.919L256.001 355.927L154.569 290.959C156.11 277.45 153.817 263.781 147.953 251.515C142.089 239.249 132.89 228.881 121.409 221.599C106.169 211.094 87.6366 206.473 69.2487 208.591C60.5752 209.44 52.1961 212.193 44.7097 216.655C37.2233 221.116 30.8143 227.176 25.9403 234.4C21.0663 241.625 17.8475 249.837 16.5138 258.449C15.18 267.061 15.7643 275.862 18.2247 284.223C23.1537 302.056 34.3842 317.496 49.8327 327.679C60.8941 335.608 73.9664 340.259 87.5503 341.098C101.134 341.937 114.68 338.93 126.633 332.423L205.361 388.319L130.441 436.359C126.899 438.609 123.846 441.547 121.461 444.999C119.076 448.451 117.408 452.346 116.556 456.454C115.704 460.563 115.685 464.8 116.501 468.916C117.317 473.032 118.95 476.942 121.305 480.415C123.65 483.88 126.664 486.842 130.171 489.126C133.677 491.41 137.604 492.97 141.721 493.716C145.839 494.461 150.064 494.376 154.148 493.466C158.232 492.555 162.093 490.838 165.505 488.415L256.001 424.239L346.497 488.463C349.912 490.961 353.796 492.744 357.917 493.705C362.038 494.667 366.31 494.786 370.478 494.057C374.646 493.328 378.624 491.765 382.174 489.462C385.723 487.158 388.771 484.162 391.135 480.653C393.499 477.143 395.131 473.193 395.931 469.038C396.732 464.883 396.686 460.609 395.796 456.473C394.906 452.336 393.19 448.422 390.75 444.964C388.311 441.506 385.199 438.577 381.601 436.351L306.593 388.351L385.377 332.431C397.328 338.941 410.873 341.95 424.457 341.114C438.041 340.277 451.114 335.629 462.177 327.703C495.057 305.511 505.793 263.639 486.089 234.359C466.385 205.079 423.497 199.351 390.545 221.543ZM156.241 475.399C152.823 477.699 148.64 478.573 144.587 477.833C140.533 477.093 136.93 474.799 134.545 471.439C133.39 469.736 132.59 467.818 132.19 465.8C131.79 463.781 131.8 461.703 132.219 459.689C132.637 457.675 133.456 455.765 134.627 454.073C135.797 452.381 137.295 450.941 139.033 449.839L219.425 398.287L242.137 414.399L156.241 475.399ZM379.761 459.695C380.388 462.73 380.086 465.884 378.896 468.745C377.706 471.607 375.682 474.045 373.088 475.741C370.494 477.436 367.449 478.312 364.35 478.254C361.251 478.196 358.242 477.207 355.713 475.415L131.401 316.215C130.033 315.245 128.395 314.729 126.718 314.741C125.042 314.752 123.411 315.29 122.057 316.279C112.58 322.464 101.437 325.6 90.1245 325.267C78.8125 324.934 67.8734 321.147 58.7767 314.415C46.5375 306.386 37.6241 294.193 33.6887 280.095C31.8057 273.936 31.3233 267.434 32.277 261.065C33.2307 254.696 35.5964 248.621 39.2008 243.284C42.8053 237.947 47.5573 233.484 53.1092 230.22C58.6612 226.957 64.8725 224.976 71.2887 224.423C85.8331 222.79 100.476 226.485 112.505 234.823C122.147 240.741 129.748 249.468 134.287 259.831C138.826 270.194 140.086 281.698 137.897 292.799C137.486 294.426 137.596 296.141 138.214 297.702C138.831 299.262 139.924 300.589 141.337 301.495L372.969 449.831C374.706 450.933 376.203 452.375 377.37 454.07C378.537 455.765 379.35 457.678 379.761 459.695ZM453.201 314.399C444.101 321.129 433.16 324.914 421.846 325.244C410.533 325.574 399.39 322.435 389.913 316.247C388.558 315.258 386.928 314.72 385.251 314.709C383.574 314.697 381.936 315.213 380.569 316.183L292.065 379.015L270.849 365.415L370.641 301.415C372.051 300.51 373.141 299.186 373.758 297.628C374.376 296.071 374.488 294.359 374.081 292.735C371.935 281.633 373.219 270.141 377.76 259.785C382.301 249.43 389.885 240.701 399.505 234.759C425.105 217.503 458.017 221.311 472.809 243.223C487.601 265.135 478.793 297.143 453.201 314.399Z" fill="url(#paint1_linear_361_461)"/>
<path d="M103.417 30.6639L94.5606 17.3359C75.2358 30.1408 60.7432 49.0353 53.3845 71.0185C46.0258 93.0018 46.223 116.814 53.9446 138.672L69.0246 133.328C62.4953 114.829 62.3341 94.6798 68.5666 76.0792C74.7992 57.4787 87.0681 41.4939 103.425 30.6639H103.417Z" fill="url(#paint2_linear_361_461)"/>
<path d="M86.0009 162.144C82.1489 157.774 78.7352 153.037 75.8089 148L61.9609 156C65.416 161.955 69.4488 167.555 74.0009 172.72L86.0009 162.144Z" fill="url(#paint3_linear_361_461)"/>
<path d="M343.841 289.599L366.617 175.727C385.134 174.116 402.311 165.406 414.553 151.42C426.795 137.434 433.154 119.255 432.299 100.688C431.445 82.12 423.443 64.6024 409.967 51.8C396.492 38.9976 378.588 31.9025 360.001 31.9992C343.824 31.9419 328.112 37.4024 315.457 47.4792C308.865 37.7809 300.002 29.8422 289.638 24.3554C279.275 18.8685 267.727 16 256.001 16C244.275 16 232.727 18.8685 222.363 24.3554C212 29.8422 203.136 37.7809 196.545 47.4792C183.89 37.4024 168.177 31.9419 152.001 31.9992C133.477 31.9975 115.666 39.1349 102.269 51.9276C88.873 64.7203 80.9223 82.1839 80.0704 100.688C79.2185 119.192 85.5308 137.312 97.6951 151.281C109.859 165.251 126.94 173.995 145.385 175.695L168.161 289.599L183.841 286.463L179.361 263.999H332.641L328.161 286.399L343.841 289.599ZM305.225 247.999L311.921 201.135L296.081 198.863L289.065 247.999H264.001V159.999H248.001V247.999H222.937L215.921 198.863L200.081 201.135L206.777 247.999H176.161L159.841 166.399C159.472 164.592 158.49 162.968 157.062 161.802C155.633 160.636 153.845 159.999 152.001 159.999C137.149 159.999 122.905 154.099 112.403 143.597C101.901 133.095 96.0009 118.851 96.0009 103.999C96.0009 89.1471 101.901 74.9033 112.403 64.4013C122.905 53.8992 137.149 47.9992 152.001 47.9992C159.625 47.9797 167.171 49.5326 174.167 52.5608C181.164 55.5891 187.461 60.0276 192.665 65.5992C193.554 66.5395 194.658 67.2501 195.882 67.6699C197.106 68.0897 198.414 68.2063 199.693 68.0097C200.972 67.813 202.185 67.3089 203.226 66.5408C204.268 65.7726 205.107 64.7632 205.673 63.5992C210.243 54.1347 217.389 46.1506 226.291 40.5635C235.193 34.9763 245.491 32.0127 256.001 32.0127C266.511 32.0127 276.808 34.9763 285.71 40.5635C294.612 46.1506 301.759 54.1347 306.329 63.5992C306.895 64.7632 307.734 65.7726 308.776 66.5408C309.817 67.3089 311.029 67.813 312.309 68.0097C313.588 68.2063 314.895 68.0897 316.119 67.6699C317.344 67.2501 318.448 66.5395 319.337 65.5992C324.541 60.0276 330.838 55.5891 337.834 52.5608C344.831 49.5326 352.377 47.9797 360.001 47.9992C374.853 47.9992 389.097 53.8992 399.599 64.4013C410.101 74.9033 416.001 89.1471 416.001 103.999C416.001 118.851 410.101 133.095 399.599 143.597C389.097 154.099 374.853 159.999 360.001 159.999C358.157 159.999 356.369 160.636 354.94 161.802C353.512 162.968 352.53 164.592 352.161 166.399L335.841 247.999H305.225Z" fill="url(#paint4_linear_361_461)"/>
<defs>
<linearGradient id="paint0_linear_361_461" x1="420.4" y1="0.0316083" x2="420.4" y2="503.96" gradientUnits="userSpaceOnUse">
<stop stop-color="#FC5C7D"/>
<stop offset="0.129" stop-color="#F35E85"/>
<stop offset="0.343" stop-color="#D9659B"/>
<stop offset="0.616" stop-color="#B070BF"/>
<stop offset="0.934" stop-color="#777FF0"/>
<stop offset="1" stop-color="#6A82FB"/>
</linearGradient>
<linearGradient id="paint1_linear_361_461" x1="255.961" y1="0.0305743" x2="255.961" y2="503.959" gradientUnits="userSpaceOnUse">
<stop stop-color="#FC5C7D"/>
<stop offset="0.129" stop-color="#F35E85"/>
<stop offset="0.343" stop-color="#D9659B"/>
<stop offset="0.616" stop-color="#B070BF"/>
<stop offset="0.934" stop-color="#777FF0"/>
<stop offset="1" stop-color="#6A82FB"/>
</linearGradient>
<linearGradient id="paint2_linear_361_461" x1="75.7126" y1="0.0319372" x2="75.7126" y2="503.96" gradientUnits="userSpaceOnUse">
<stop stop-color="#FC5C7D"/>
<stop offset="0.129" stop-color="#F35E85"/>
<stop offset="0.343" stop-color="#D9659B"/>
<stop offset="0.616" stop-color="#B070BF"/>
<stop offset="0.934" stop-color="#777FF0"/>
<stop offset="1" stop-color="#6A82FB"/>
</linearGradient>
<linearGradient id="paint3_linear_361_461" x1="73.9769" y1="0.0319861" x2="73.9769" y2="503.96" gradientUnits="userSpaceOnUse">
<stop stop-color="#FC5C7D"/>
<stop offset="0.129" stop-color="#F35E85"/>
<stop offset="0.343" stop-color="#D9659B"/>
<stop offset="0.616" stop-color="#B070BF"/>
<stop offset="0.934" stop-color="#777FF0"/>
<stop offset="1" stop-color="#6A82FB"/>
</linearGradient>
<linearGradient id="paint4_linear_361_461" x1="256.001" y1="0.0312295" x2="256.001" y2="503.959" gradientUnits="userSpaceOnUse">
<stop stop-color="#FC5C7D"/>
<stop offset="0.129" stop-color="#F35E85"/>
<stop offset="0.343" stop-color="#D9659B"/>
<stop offset="0.616" stop-color="#B070BF"/>
<stop offset="0.934" stop-color="#777FF0"/>
<stop offset="1" stop-color="#6A82FB"/>
</linearGradient>
</defs>
</svg>
